<svg width="200" height="200" viewBox="0 0 200 200" fill="none" xmlns="http://www.w3.org/2000/svg">
<rect width="200" height="200" rx="40" fill="white"/>
<g filter="url(#filter0_d_1_17)">
<path d="M109.067 99.9432C109.067 105.309 104.614 109.658 99.1216 109.658C93.6292 109.658 89.1767 105.309 89.1767 99.9432C89.1767 94.5776 93.6292 90.228 99.1216 90.228C104.614 90.228 109.067 94.5776 109.067 99.9432Z" fill="black"/>
<path d="M136.224 115.263C136.224 120.629 131.771 124.979 126.279 124.979C120.786 124.979 116.334 120.629 116.334 115.263C116.334 109.898 120.786 105.548 126.279 105.548C131.771 105.548 136.224 109.898 136.224 115.263Z" fill="black"/>
<path d="M163.381 130.584C163.381 135.949 158.929 140.299 153.436 140.299C147.944 140.299 143.491 135.949 143.491 130.584C143.491 125.218 147.944 120.868 153.436 120.868C158.929 120.868 163.381 125.218 163.381 130.584Z" fill="black"/>
<path d="M82.2917 84.6232C82.2917 89.9887 77.8392 94.3384 72.3468 94.3384C66.8544 94.3384 62.4019 89.9887 62.4019 84.6232C62.4019 79.2576 66.8544 74.9079 72.3468 74.9079C77.8392 74.9079 82.2917 79.2576 82.2917 84.6232Z" fill="black"/>
<path d="M55.5169 69.3029C55.5169 74.6685 51.0645 79.0181 45.572 79.0181C40.0796 79.0181 35.6271 74.6685 35.6271 69.3029C35.6271 63.9373 40.0796 59.5877 45.572 59.5877C51.0645 59.5877 55.5169 63.9373 55.5169 69.3029Z" fill="black"/>
<path d="M82.2917 115.263C82.2917 120.629 77.8392 124.979 72.3468 124.979C66.8544 124.979 62.4019 120.629 62.4019 115.263C62.4019 109.898 66.8544 105.548 72.3468 105.548C77.8392 105.548 82.2917 109.898 82.2917 115.263Z" fill="black"/>
<path d="M55.5169 130.584C55.5169 135.949 51.0645 140.299 45.572 140.299C40.0796 140.299 35.6271 135.949 35.6271 130.584C35.6271 125.218 40.0796 120.868 45.572 120.868C51.0645 120.868 55.5169 125.218 55.5169 130.584Z" fill="black"/>
<path d="M136.224 84.6232C136.224 89.9887 131.771 94.3384 126.279 94.3384C120.786 94.3384 116.334 89.9887 116.334 84.6232C116.334 79.2576 120.786 74.9079 126.279 74.9079C131.771 74.9079 136.224 79.2576 136.224 84.6232Z" fill="black"/>
<path d="M163.381 69.3029C163.381 74.6685 158.929 79.0181 153.436 79.0181C147.944 79.0181 143.491 74.6685 143.491 69.3029C143.491 63.9373 147.944 59.5877 153.436 59.5877C158.929 59.5877 163.381 63.9373 163.381 69.3029Z" fill="black"/>
<path d="M109.067 130.584C109.067 135.949 104.614 140.299 99.1216 140.299C93.6292 140.299 89.1767 135.949 89.1767 130.584C89.1767 125.218 93.6292 120.868 99.1216 120.868C104.614 120.868 109.067 125.218 109.067 130.584Z" fill="black"/>
<path d="M109.067 161.224C109.067 166.589 104.614 170.939 99.1216 170.939C93.6292 170.939 89.1767 166.589 89.1767 161.224C89.1767 155.858 93.6292 151.509 99.1216 151.509C104.614 151.509 109.067 155.858 109.067 161.224Z" fill="black"/>
<path d="M109.067 69.3029C109.067 74.6685 104.614 79.0181 99.1216 79.0181C93.6292 79.0181 89.1767 74.6685 89.1767 69.3029C89.1767 63.9373 93.6292 59.5877 99.1216 59.5877C104.614 59.5877 109.067 63.9373 109.067 69.3029Z" fill="black"/>
<path d="M109.067 38.6626C109.067 44.0282 104.614 48.3778 99.1216 48.3778C93.6292 48.3778 89.1767 44.0282 89.1767 38.6626C89.1767 33.297 93.6292 28.9474 99.1216 28.9474C104.614 28.9474 109.067 33.297 109.067 38.6626Z" fill="black"/>
</g>
<defs>
<filter id="filter0_d_1_17" x="22.7446" y="28.9474" width="153.349" height="149.992" filterUnits="userSpaceOnUse" color-interpolation-filters="sRGB">
<feFlood flood-opacity="0" result="BackgroundImageFix"/>
<feColorMatrix in="SourceAlpha" type="matrix" values="0 0 0 0 0 0 0 0 0 0 0 0 0 0 0 0 0 0 127 0" result="hardAlpha"/>
<feOffset dy="4"/>
<feGaussianBlur stdDeviation="2"/>
<feComposite in2="hardAlpha" operator="out"/>
<feColorMatrix type="matrix" values="0 0 0 0 0 0 0 0 0 0 0 0 0 0 0 0 0 0 0.25 0"/>
<feBlend mode="normal" in2="BackgroundImageFix" result="effect1_dropShadow_1_17"/>
<feBlend mode="normal" in="SourceGraphic" in2="effect1_dropShadow_1_17" result="shape"/>
</filter>
</defs>
</svg>
