<svg width="568" height="117" viewBox="0 0 568 117" fill="none" xmlns="http://www.w3.org/2000/svg">
<path d="M153.8 95L126.5 25H138.1L166.1 95H153.8ZM97.9 95L125.8 25H137.5L110.2 95H97.9ZM111 77.8V67.5H152.9V77.8H111ZM173.122 95V25H184.322V95H173.122ZM196.755 95V25H207.955V95H196.755ZM243.388 96.2C238.388 96.2 233.921 95.1 229.988 92.9C226.121 90.6333 223.088 87.5333 220.888 83.6C218.688 79.6667 217.588 75.1333 217.588 70C217.588 64.8667 218.654 60.3333 220.787 56.4C222.988 52.4667 226.021 49.4 229.888 47.2C233.754 44.9333 238.188 43.8 243.188 43.8C248.188 43.8 252.621 44.9333 256.488 47.2C260.354 49.4 263.354 52.4667 265.488 56.4C267.688 60.3333 268.788 64.8667 268.788 70C268.788 75.1333 267.721 79.6667 265.587 83.6C263.454 87.5333 260.454 90.6333 256.588 92.9C252.721 95.1 248.321 96.2 243.388 96.2ZM243.388 85.9C246.121 85.9 248.554 85.2333 250.688 83.9C252.821 82.5 254.488 80.6333 255.688 78.3C256.888 75.9 257.488 73.1333 257.488 70C257.488 66.8667 256.854 64.1333 255.588 61.8C254.388 59.4 252.721 57.5333 250.588 56.2C248.454 54.8 245.988 54.1 243.188 54.1C240.388 54.1 237.921 54.7667 235.788 56.1C233.654 57.4333 231.988 59.3 230.788 61.7C229.588 64.1 228.988 66.8667 228.988 70C228.988 73.1333 229.588 75.9 230.788 78.3C232.054 80.6333 233.754 82.5 235.888 83.9C238.088 85.2333 240.588 85.9 243.388 85.9ZM284.538 116.2C282.938 116.2 281.138 115.9 279.138 115.3C277.204 114.7 275.338 113.933 273.538 113L277.738 103.9C279.004 104.5 280.171 104.967 281.238 105.3C282.304 105.7 283.171 105.9 283.838 105.9C285.438 105.9 286.771 105.467 287.838 104.6C288.971 103.8 289.871 102.6 290.538 101L296.438 87.2L313.338 45H325.537L302.338 100.3C300.938 103.5 299.504 106.3 298.038 108.7C296.638 111.1 294.871 112.933 292.738 114.2C290.604 115.533 287.871 116.2 284.538 116.2ZM293.438 95L271.038 45H283.238L300.638 87.1L304.238 95H293.438ZM348.804 95V35.6H327.304V25H381.904V35.6H360.404V95H348.804ZM405.383 96.2C400.516 96.2 396.183 95.1 392.383 92.9C388.649 90.6333 385.683 87.5333 383.483 83.6C381.349 79.6667 380.283 75.1333 380.283 70C380.283 64.8667 381.383 60.3333 383.583 56.4C385.783 52.4667 388.783 49.4 392.583 47.2C396.449 44.9333 400.849 43.8 405.783 43.8C410.249 43.8 414.283 44.9667 417.883 47.3C421.483 49.5667 424.316 52.8667 426.383 57.2C428.516 61.5333 429.583 66.7 429.583 72.7H390.283L391.783 71.3C391.783 74.3667 392.449 77.0333 393.783 79.3C395.116 81.5 396.883 83.2 399.083 84.4C401.283 85.6 403.716 86.2 406.383 86.2C409.449 86.2 411.983 85.5333 413.983 84.2C415.983 82.8 417.549 81 418.683 78.8L428.583 83C427.183 85.6667 425.383 88 423.183 90C421.049 92 418.483 93.5333 415.483 94.6C412.549 95.6667 409.183 96.2 405.383 96.2ZM392.483 65.5L390.883 64.1H419.083L417.583 65.5C417.583 62.7667 416.983 60.5333 415.783 58.8C414.583 57 413.049 55.6667 411.183 54.8C409.383 53.8667 407.483 53.4 405.483 53.4C403.483 53.4 401.483 53.8667 399.483 54.8C397.483 55.6667 395.816 57 394.483 58.8C393.149 60.5333 392.483 62.7667 392.483 65.5ZM445.561 68.4C445.561 63 446.594 58.5667 448.661 55.1C450.728 51.6333 453.394 49.0667 456.661 47.4C459.994 45.6667 463.461 44.8 467.061 44.8V55.5C463.994 55.5 461.094 55.9333 458.361 56.8C455.694 57.6 453.528 58.9333 451.861 60.8C450.194 62.6667 449.361 65.1333 449.361 68.2L445.561 68.4ZM438.161 95V45H449.361V95H438.161ZM481.889 68.4C481.889 63 482.922 58.5667 484.989 55.1C487.056 51.6333 489.722 49.0667 492.989 47.4C496.322 45.6667 499.789 44.8 503.389 44.8V55.5C500.322 55.5 497.422 55.9333 494.689 56.8C492.022 57.6 489.856 58.9333 488.189 60.8C486.522 62.6667 485.689 65.1333 485.689 68.2L481.889 68.4ZM474.489 95V45H485.689V95H474.489ZM541.317 95L540.817 85.6V69.3C540.817 65.9 540.451 63.0667 539.717 60.8C539.051 58.4667 537.917 56.7 536.317 55.5C534.784 54.2333 532.717 53.6 530.117 53.6C527.717 53.6 525.617 54.1 523.817 55.1C522.017 56.1 520.484 57.6667 519.217 59.8L509.417 56.2C510.484 54 511.884 51.9667 513.617 50.1C515.417 48.1667 517.651 46.6333 520.317 45.5C523.051 44.3667 526.317 43.8 530.117 43.8C534.984 43.8 539.051 44.7667 542.317 46.7C545.584 48.5667 547.984 51.2667 549.517 54.8C551.117 58.3333 551.917 62.6 551.917 67.6L551.617 95H541.317ZM526.917 96.2C520.917 96.2 516.251 94.8667 512.917 92.2C509.651 89.5333 508.017 85.7667 508.017 80.9C508.017 75.7 509.751 71.7333 513.217 69C516.751 66.2667 521.651 64.9 527.917 64.9H541.317V73.5H531.517C527.051 73.5 523.917 74.1333 522.117 75.4C520.317 76.6 519.417 78.3333 519.417 80.6C519.417 82.5333 520.184 84.0667 521.717 85.2C523.317 86.2667 525.517 86.8 528.317 86.8C530.851 86.8 533.051 86.2333 534.917 85.1C536.784 83.9667 538.217 82.4667 539.217 80.6C540.284 78.7333 540.817 76.6333 540.817 74.3H544.117C544.117 81.1 542.751 86.4667 540.017 90.4C537.284 94.2667 532.917 96.2 526.917 96.2Z" fill="black"/>
<rect x="3.5" y="20.5" width="74" height="74" stroke="black"/>
<path d="M78 20H80.5V17.5H78V20ZM3.35545 95H0.85545V97.5H3.35545V95ZM74.9696 70.3073L72.6583 69.3545L74.9696 70.3073ZM53.4244 91.9552L52.4638 89.6471L52.4638 89.6471L53.4244 91.9552ZM27.9311 23.0448L28.8917 25.3529L28.8917 25.3529L27.9311 23.0448ZM6.38584 44.6927L8.69714 45.6455L6.38584 44.6927ZM69.6691 86.6295L69.6691 89.1295L72.1691 89.1295L72.1691 86.6295L69.6691 86.6295ZM11.6863 28.3705L11.6863 25.8705L9.18632 25.8705L9.18632 28.3705L11.6863 28.3705ZM37.528 84.0862L38.4088 81.7466L37.528 84.0862ZM14.2175 60.6648L16.5599 59.7912L14.2175 60.6648ZM67.138 54.3352L64.7956 55.2088L67.138 54.3352ZM43.8275 30.9138L42.9466 33.2534L43.8275 30.9138ZM65.0039 81.942L65.0039 84.442L67.5039 84.442L67.5039 81.942L65.0039 81.942ZM16.6848 33.3929L16.6848 30.8929L14.1848 30.8929L14.1848 33.3929L16.6848 33.3929ZM49.844 81.3797L49.4243 83.8443L49.844 81.3797ZM17.2444 48.6249L14.7792 49.0407L17.2444 48.6249ZM64.4443 66.7099L66.9095 66.2941L64.4443 66.7099ZM31.8447 33.9551L32.2643 31.4906L31.8447 33.9551ZM63.0711 22.5H78V17.5H63.0711V22.5ZM75.5 20V35H80.5V20H75.5ZM18.2844 92.5H3.35545V97.5H18.2844V92.5ZM5.85545 95V80H0.85545V95H5.85545ZM75.5 35C75.5 44.3529 75.4987 51.2429 75.1269 56.7169C74.7567 62.1686 74.0275 66.0333 72.6583 69.3545L77.2809 71.2602C78.9421 67.2305 79.7281 62.7604 80.1155 57.0556C80.5013 51.373 80.5 44.2848 80.5 35H75.5ZM18.2844 97.5C27.5247 97.5 34.5807 97.5014 40.2378 97.1135C45.9177 96.7242 50.3704 95.9341 54.385 94.2633L52.4638 89.6471C49.1623 91.0211 45.3197 91.7534 39.8959 92.1253C34.4494 92.4986 27.5934 92.5 18.2844 92.5V97.5ZM72.6583 69.3545C68.8695 78.545 61.604 85.8431 52.4638 89.6471L54.385 94.2633C64.7541 89.9478 72.9886 81.672 77.2809 71.2602L72.6583 69.3545ZM63.0711 17.5C53.8308 17.5 46.7748 17.4986 41.1176 17.8865C35.4378 18.2758 30.985 19.0659 26.9705 20.7367L28.8917 25.3529C32.1932 23.9789 36.0358 23.2466 41.4596 22.8747C46.9061 22.5014 53.7621 22.5 63.0711 22.5V17.5ZM5.85545 80C5.85545 70.6471 5.85679 63.7571 6.2285 58.2832C6.59871 52.8314 7.32799 48.9667 8.69714 45.6455L4.07454 43.7398C2.4133 47.7695 1.62739 52.2396 1.23999 57.9444C0.854109 63.627 0.85545 70.7152 0.85545 80H5.85545ZM26.9705 20.7367C16.6014 25.0522 8.3668 33.328 4.07454 43.7398L8.69714 45.6455C12.4859 36.455 19.7515 29.1569 28.8917 25.3529L26.9705 20.7367ZM69.6691 84.1295C61.1758 84.1295 54.9206 84.1283 49.9415 83.8165C44.9824 83.5058 41.4563 82.8939 38.4088 81.7466L36.6471 86.4259C40.3547 87.8218 44.4372 88.4815 49.6289 88.8067C54.8006 89.1306 61.2384 89.1295 69.6691 89.1295L69.6691 84.1295ZM9.18632 28.3705C9.18632 36.8418 9.1852 43.3091 9.50751 48.504C9.83104 53.7186 10.4873 57.8169 11.8751 61.5383L16.5599 59.7912C15.4165 56.7253 14.8072 53.1789 14.4979 48.1944C14.1874 43.1902 14.1863 36.9039 14.1863 28.3705L9.18632 28.3705ZM38.4088 81.7466C28.3144 77.9461 20.3453 69.9418 16.5599 59.7912L11.8751 61.5383C16.1633 73.0372 25.1948 82.1142 36.6471 86.4259L38.4088 81.7466ZM72.1691 86.6295C72.1691 78.1582 72.1703 71.6909 71.8479 66.496C71.5244 61.2814 70.8682 57.1831 69.4804 53.4617L64.7956 55.2088C65.9389 58.2747 66.5483 61.8211 66.8575 66.8056C67.168 71.8098 67.1691 78.0961 67.1691 86.6295L72.1691 86.6295ZM11.6863 30.8705C20.1797 30.8705 26.4349 30.8717 31.414 31.1835C36.3731 31.4942 39.8991 32.1061 42.9466 33.2534L44.7084 28.5741C41.0008 27.1782 36.9183 26.5185 31.7266 26.1933C26.5549 25.8694 20.117 25.8705 11.6863 25.8705L11.6863 30.8705ZM69.4804 53.4617C65.1921 41.9628 56.1607 32.8858 44.7084 28.5741L42.9466 33.2534C53.0411 37.0539 61.0101 45.0582 64.7956 55.2088L69.4804 53.4617ZM65.0039 79.442C56.996 79.442 53.3049 79.433 50.2636 78.9152L49.4243 83.8443C52.9873 84.4509 57.2013 84.442 65.0039 84.442L65.0039 79.442ZM14.1848 33.3929C14.1848 41.234 14.1761 45.4644 14.7792 49.0407L19.7096 48.2092C19.1936 45.1498 19.1848 41.4374 19.1848 33.3929L14.1848 33.3929ZM50.2636 78.9152C34.625 76.2525 22.3626 63.9398 19.7096 48.2092L14.7792 49.0407C17.7837 66.8553 31.6767 80.8225 49.4243 83.8443L50.2636 78.9152ZM67.5039 81.942C67.5039 74.1009 67.5126 69.8704 66.9095 66.2941L61.9791 67.1257C62.4951 70.185 62.5039 73.8974 62.5039 81.942L67.5039 81.942ZM16.6848 35.8929C24.6927 35.8929 28.3838 35.9018 31.4251 36.4196L32.2643 31.4906C28.7014 30.8839 24.4874 30.8929 16.6848 30.8929L16.6848 35.8929ZM66.9095 66.2941C63.905 48.4795 50.012 34.5123 32.2643 31.4906L31.4251 36.4196C47.0637 39.0823 59.3261 51.395 61.9791 67.1257L66.9095 66.2941ZM78 17.8571L3.35545 17.8572L3.35545 22.8571L78 22.8571L78 17.8571ZM5.5 95L5.5 20L0.500001 20L0.5 95L5.5 95ZM80.1446 95V20H75.1446V95H80.1446ZM3.35545 97.1429H78V92.1429H3.35545V97.1429Z" fill="black"/>
</svg>
