<svg width="131" height="131" viewBox="0 0 131 131" fill="none" xmlns="http://www.w3.org/2000/svg">
<rect x="3.5" y="3.5" width="124" height="124" stroke="black"/>
<path d="M128 3H130.5V0.5H128V3ZM3.59242 128H1.09242V130.5H3.59242V128ZM122.949 86.8456L120.638 85.8927L120.638 85.8927L122.949 86.8456ZM87.0406 122.925L86.08 120.617L86.08 120.617L87.0406 122.925ZM44.5518 8.0747L45.5124 10.3828L45.5124 10.3828L44.5518 8.0747ZM8.64306 44.1544L10.9544 45.1073L10.9544 45.1073L8.64306 44.1544ZM114.115 114.049L114.115 116.549L116.615 116.549L116.615 114.049L114.115 114.049ZM17.4772 16.9509L17.4772 14.4509L14.9772 14.4509L14.9772 16.9509L17.4772 16.9509ZM60.5466 109.81L61.4275 107.471L61.4275 107.471L60.5466 109.81ZM21.6958 70.7746L24.0382 69.901L21.6958 70.7746ZM109.897 60.2254L107.554 61.099L109.897 60.2254ZM71.0458 21.1896L70.1649 23.5293L70.1649 23.5293L71.0458 21.1896ZM106.34 106.237L106.34 108.737L108.84 108.737L108.84 106.237L106.34 106.237ZM25.8081 25.3214L25.8081 22.8214L23.3081 22.8214L23.3081 25.3214L25.8081 25.3214ZM81.0733 105.3L80.6537 107.764L81.0733 105.3ZM26.7407 50.7082L24.2755 51.124L26.7407 50.7082ZM105.407 80.8498L107.872 80.4341L105.407 80.8498ZM51.0745 26.2585L51.4941 23.7939L51.0745 26.2585ZM103.118 5.5H128V0.5H103.118V5.5ZM125.5 3V28H130.5V3H125.5ZM28.4739 125.5H3.59242V130.5H28.4739V125.5ZM6.09242 128V103H1.09242V128H6.09242ZM125.5 28C125.5 43.5654 125.499 55.1149 124.874 64.3077C124.252 73.4782 123.017 80.1213 120.638 85.8927L125.261 87.7984C127.932 81.3184 129.223 74.0701 129.863 64.6464C130.501 55.245 130.5 43.4973 130.5 28H125.5ZM28.4739 130.5C43.8973 130.5 55.5907 130.501 64.9491 129.86C74.3302 129.217 81.548 127.919 88.0012 125.233L86.08 120.617C80.3399 123.006 73.7322 124.246 64.6071 124.872C55.4594 125.499 43.9661 125.5 28.4739 125.5V130.5ZM120.638 85.8927C114.156 101.617 101.723 114.107 86.08 120.617L88.0012 125.233C104.873 118.211 118.275 104.744 125.261 87.7984L120.638 85.8927ZM103.118 0.5C87.6951 0.5 76.0017 0.498633 66.6433 1.14019C57.2623 1.7833 50.0444 3.08088 43.5912 5.76661L45.5124 10.3828C51.2525 7.99382 57.8603 6.75404 66.9853 6.12848C76.133 5.50137 87.6263 5.5 103.118 5.5V0.5ZM6.09242 103C6.09242 87.4346 6.09376 75.8851 6.718 66.6923C7.34074 57.5218 8.57508 50.8787 10.9544 45.1073L6.33176 43.2016C3.6604 49.6816 2.36942 56.9299 1.72949 66.3536C1.09108 75.755 1.09242 87.5027 1.09242 103H6.09242ZM43.5912 5.76661C26.719 12.7886 13.3177 26.2557 6.33176 43.2016L10.9544 45.1073C17.4368 29.3827 29.8691 16.8933 45.5124 10.3828L43.5912 5.76661ZM114.115 111.549C99.9805 111.549 89.4943 111.548 81.1316 111.024C72.7889 110.502 66.7267 109.466 61.4275 107.471L59.6657 112.15C65.625 114.394 72.2437 115.477 80.819 116.014C89.3743 116.55 100.043 116.549 114.115 116.549L114.115 111.549ZM14.9772 16.9509C14.9772 31.0904 14.9761 41.8088 15.5093 50.4035C16.0438 59.0178 17.1219 65.6644 19.3534 71.6482L24.0382 69.901C22.0511 64.5728 21.0199 58.4781 20.4997 50.0938C19.9783 41.6899 19.9772 31.1525 19.9772 16.9509L14.9772 16.9509ZM61.4275 107.471C44.1507 100.966 30.5149 87.2681 24.0382 69.901L19.3534 71.6482C26.3329 90.3635 41.0311 105.134 59.6657 112.15L61.4275 107.471ZM116.615 114.049C116.615 99.9096 116.616 89.1912 116.083 80.5965C115.549 71.9822 114.471 65.3356 112.239 59.3518L107.554 61.099C109.541 66.4272 110.573 72.5219 111.093 80.9062C111.614 89.3101 111.615 99.8475 111.615 114.049L116.615 114.049ZM17.4772 19.4509C31.6119 19.4509 42.0981 19.452 50.4609 19.9758C58.8035 20.4984 64.8658 21.5342 70.1649 23.5293L71.9267 18.8499C65.9674 16.6063 59.3487 15.5227 50.7734 14.9856C42.2181 14.4497 31.5493 14.4509 17.4772 14.4509L17.4772 19.4509ZM112.239 59.3518C105.26 40.6365 90.5613 25.8657 71.9267 18.8499L70.1649 23.5293C87.4417 30.0338 101.078 43.7319 107.554 61.099L112.239 59.3518ZM106.34 103.737C93.0618 103.737 86.7356 103.728 81.4929 102.835L80.6537 107.764C86.418 108.746 93.2671 108.737 106.34 108.737L106.34 103.737ZM23.3081 25.3214C23.3081 38.4578 23.2993 45.3358 24.2755 51.124L29.2058 50.2925C28.3168 45.0212 28.3081 38.6612 28.3081 25.3214L23.3081 25.3214ZM81.4929 102.835C54.7256 98.2776 33.7447 77.2048 29.2058 50.2925L24.2755 51.124C29.1658 80.1203 51.7772 102.848 80.6537 107.764L81.4929 102.835ZM108.84 106.237C108.84 93.1003 108.849 86.2222 107.872 80.4341L102.942 81.2656C103.831 86.5368 103.84 92.8969 103.84 106.237L108.84 106.237ZM25.8081 27.8214C39.086 27.8214 45.4122 27.8304 50.6549 28.723L51.4941 23.7939C45.7298 22.8125 38.8807 22.8214 25.8081 22.8214L25.8081 27.8214ZM107.872 80.4341C102.982 51.4377 80.3706 28.7105 51.4941 23.7939L50.6549 28.723C77.4222 33.2805 98.4031 54.3532 102.942 81.2656L107.872 80.4341ZM128 1.09524L3.59242 1.09525L3.59242 6.09525L128 6.09524L128 1.09524ZM5.5 128L5.5 3L0.500002 3L0.5 128L5.5 128ZM129.908 128V3H124.908V128H129.908ZM3.59242 129.905H128V124.905H3.59242V129.905Z" fill="black"/>
</svg>
